<?xml version="1.0" encoding="UTF-8" standalone="no"?>
<svg
   xmlns:dc="http://purl.org/dc/elements/1.1/"
   xmlns:cc="http://creativecommons.org/ns#"
   xmlns:rdf="http://www.w3.org/1999/02/22-rdf-syntax-ns#"
   xmlns:svg="http://www.w3.org/2000/svg"
   xmlns="http://www.w3.org/2000/svg"
   viewBox="0 0 800 533.33331"
   height="533.33331"
   width="800"
   xml:space="preserve"
   id="svg2"
   version="1.1"
>
  <metadata id="metadata8">
    <rdf:RDF>
      <cc:Work rdf:about="">
        <dc:format>image/svg+xml</dc:format>
        <dc:type rdf:resource="http://purl.org/dc/dcmitype/StillImage" />
      </cc:Work>
    </rdf:RDF>
  </metadata>
  <defs id="defs6">
    <linearGradient
      id="linearGradient26"
      spreadMethod="pad"
      gradientTransform="matrix(-1.748e-4,4000,4000,1.748e-4,3000,0)"
      gradientUnits="userSpaceOnUse"
      y2="0"
      x2="1"
      y1="0"
      x1="0"
    >
      <stop
         id="stop22"
         offset="0"
         style="stop-opacity:1;stop-color:#4c545c" /><stop
         id="stop24"
         offset="1"
         style="stop-opacity:1;stop-color:#f3f3f5" />
    </linearGradient>
        
  </defs>
  <g
     transform="matrix(1.3333333,0,0,-1.3333333,0,533.33333)"
     id="g10"><g
       transform="scale(0.1)"
       id="g12"><g
         id="g14"><g
           id="g16"><path
             id="path28"
             style="fill:url(#linearGradient26);fill-opacity:1;fill-rule:nonzero;stroke:none"
             d="M 6000,0 H 5468.48 L 6000,1066.05 V 0 m -534.38,0 h -270.35 l -322.99,388.422 c 2.84,2.769 4.59,6.637 4.59,10.93 0,2.796 -0.75,5.429 -2.07,7.687 L 6000,1180.22 V 1071.75 L 5465.62,0 m -273.68,0 h -909.5 l 567.22,389.762 c 2.8,-3.481 7.1,-5.711 11.92,-5.711 3.25,0 6.26,1.008 8.74,2.738 L 5191.94,0 m -913.99,0 h -128.03 l 278.07,902.082 c 1.16,-0.281 2.38,-0.434 3.63,-0.434 3.13,0 6.04,0.942 8.46,2.563 l 410.75,-493.973 c -2.81,-2.777 -4.55,-6.629 -4.55,-10.886 0,-2.723 0.71,-5.282 1.95,-7.493 L 4277.95,0 m -130.69,0 h -66.42 l -354.38,959.469 c 4.5,2.09 7.81,6.312 8.65,11.363 l 681.21,-54.07 c 0.08,-6.211 3.86,-11.543 9.24,-13.864 L 4147.26,0 m -69.14,0 h -134.84 l -858.72,565.051 c 1.16,2.148 1.81,4.597 1.81,7.211 0,6.187 -3.7,11.539 -9.01,13.949 l 139.2,411.91 c 1.1,-0.25 2.25,-0.391 3.42,-0.391 7.6,0 13.9,5.54 15.11,12.78 l 469.63,-37.272 c 0.05,-8.386 6.88,-15.187 15.29,-15.187 1.41,0 2.77,0.187 4.06,0.539 L 4078.12,0 M 3938.66,0 H 2879.29 l 188.32,557.352 c 1.11,-0.25 2.27,-0.391 3.45,-0.391 4.93,0 9.32,2.328 12.11,5.937 L 3938.66,0 M 2876.58,0 H 2693.6 l -397.67,1072.45 c 2.33,1.02 4.36,2.6 5.91,4.58 l 755.84,-497.35 c -1.22,-2.2 -1.92,-4.731 -1.92,-7.418 0,-6.364 3.88,-11.821 9.42,-14.133 L 2876.58,0 m -185.7,0 h -862.77 l 456.24,1072.17 c 1.69,-0.65 3.53,-1 5.44,-1 1.29,0 2.53,0.16 3.72,0.46 L 2690.88,0 m -865.54,0 h -113.02 l -200.21,305.492 c 3.63,2.797 5.97,7.188 5.97,12.117 0,3.493 -1.18,6.723 -3.16,9.301 l 764.37,748.44 c 0.84,-0.79 1.77,-1.49 2.77,-2.08 L 1825.34,0 m -116.06,0 h -528.23 l 312.15,305.66 c 2.62,-2.101 5.95,-3.351 9.56,-3.351 2.61,0 5.06,0.652 7.21,1.793 L 1709.28,0 M 1177.41,0 H 974.27 l -110.7,918.891 c 6.918,1.468 12.114,7.629 12.114,14.98 0,0.109 0,0.207 -0.004,0.32 l 192.45,20.61 c 1.5,-6.86 7.62,-12.02 14.96,-12.02 2.57,0 4.99,0.641 7.11,1.758 l 403.06,-614.937 c -3.53,-2.801 -5.8,-7.133 -5.8,-11.993 0,-3.918 1.47,-7.488 3.89,-10.199 L 1177.41,0 M 971.695,0 H 775.473 L 0,612.57 v -3.238 L 771.367,0 H 0 V 4000 H 6000 V 1239.11 L 4446.3,921.238 c -1.85,6.364 -7.72,11.012 -14.68,11.012 -4.5,0 -8.54,-1.949 -11.34,-5.031 l -954.96,762.651 c 1.44,2.33 2.28,5.09 2.28,8.03 0,8.43 -6.84,15.3 -15.31,15.3 -8.45,0 -15.3,-6.87 -15.3,-15.3 0,-1.77 0.3,-3.47 0.86,-5.05 L 2302.36,1095.21 c -2.76,3.97 -7.36,6.56 -12.57,6.56 -6.9,0 -12.73,-4.57 -14.63,-10.85 L 823.141,1377.34 c 0.015,0.27 0.023,0.55 0.023,0.82 0,8.44 -6.855,15.32 -15.305,15.32 -8.433,0 -15.293,-6.88 -15.293,-15.32 0,-1.63 0.258,-3.21 0.735,-4.68 L 0,950.379 v -2.891 l 794.281,423.642 c 2.5,-4.81 7.473,-8.12 13.223,-8.26 l 49.875,-413.999 c -7.004,-1.391 -12.289,-7.59 -12.289,-15 0,-0.133 0,-0.262 0.004,-0.383 L 0,842.969 v -2.559 l 845.367,90.531 c 1.367,-7.043 7.574,-12.39 15.012,-12.39 0.223,0 0.441,0.008 0.656,0.019 L 971.695,0 M 1513.2,328.809 c -2.74,2.543 -6.41,4.101 -10.44,4.101 -2.67,0 -5.19,-0.691 -7.38,-1.898 l -403.02,614.91 c 3.65,2.789 6.01,7.187 6.02,12.137 l 1176.31,125.981 c 0.41,-2.52 1.42,-4.82 2.89,-6.77 L 1513.2,328.809 m 3360.15,80.3 c -2.8,3.391 -7.03,5.539 -11.77,5.539 -3.28,0 -6.32,-1.027 -8.81,-2.789 l -410.7,493.922 c 2.98,2.801 4.84,6.77 4.84,11.168 0,0.61 -0.03,1.211 -0.1,1.801 L 6000,1236.52 v -53.23 L 4873.35,409.109 m -1814.24,172.7 -755.87,497.341 c 0.87,1.58 1.46,3.33 1.72,5.18 l 899.73,-71.41 c 0.04,-6.32 3.93,-11.74 9.45,-14.029 L 3074.96,587.059 c -1.24,0.32 -2.55,0.5 -3.9,0.5 -4.84,0 -9.15,-2.25 -11.95,-5.75 m 1357.39,337.5 -681.19,54.062 c -0.01,8.418 -6.84,15.277 -15.3,15.277 -1.43,0 -2.81,-0.187 -4.13,-0.558 l -257.06,695.97 c 1.91,0.9 3.6,2.18 4.97,3.75 l 954.94,-762.611 c -1.12,-1.75 -1.9,-3.75 -2.23,-5.89 M 875.418,936.73 c -1.344,7.071 -7.566,12.442 -15.039,12.442 -0.156,0 -0.309,0 -0.465,-0.012 l -49.851,413.87 c 1.726,0.25 3.359,0.78 4.847,1.56 l 258.61,-394.57 c -3.5,-2.801 -5.74,-7.11 -5.74,-11.938 0,-0.254 0.01,-0.5 0.02,-0.75 L 875.418,936.73 m 222.752,23.86 c -1.19,7.25 -7.49,12.789 -15.08,12.789 -2.71,0 -5.25,-0.699 -7.46,-1.93 L 817.063,1365.95 c 2.847,2.14 4.921,5.26 5.73,8.86 L 2274.63,1088.43 c -0.08,-0.61 -0.12,-1.24 -0.13,-1.87 L 1098.17,960.59 m 2606.74,15.191 -469.62,37.269 c 0,6.18 -3.68,11.52 -8.98,13.92 l 221.75,656.23 c 1.34,-0.39 2.77,-0.59 4.23,-0.59 1.44,0 2.83,0.2 4.15,0.57 L 3713.5,987.199 c -4.48,-2.117 -7.78,-6.359 -8.59,-11.418 m -500.03,39.689 -899.78,71.42 c -0.06,2.19 -0.58,4.26 -1.46,6.13 l 1135.25,597.5 c 1.54,-2.78 3.92,-5.03 6.79,-6.41 L 3223.9,1027.83 c -1.25,0.33 -2.56,0.5 -3.92,0.5 -7.62,0 -13.93,-5.58 -15.1,-12.86" /></g></g><g
         id="g30"><g
           id="g32"><path
             id="path44"
             style="fill:#9ca3ac;fill-opacity:1;fill-rule:nonzero;stroke:none"
             d="m 775.473,0 h -4.106 L 0,609.332 v 3.238 L 775.473,0" /></g></g><g
         id="g46"><g
           id="g48"><path
             id="path60"
             style="fill:#9ca3ac;fill-opacity:1;fill-rule:nonzero;stroke:none"
             d="m 3943.28,0 h -4.62 l -855.49,562.898 c 0.52,0.684 0.99,1.391 1.39,2.153 L 3943.28,0" /></g></g><g
         id="g62"><g
           id="g64"><path
             id="path76"
             style="fill:#9ca3ac;fill-opacity:1;fill-rule:nonzero;stroke:none"
             d="m 4282.44,0 h -4.49 l 570.28,391.859 c 0.42,-0.738 0.9,-1.437 1.43,-2.097 L 4282.44,0" /></g></g><g
         id="g78"><g
           id="g80"><path
             id="path92"
             style="fill:#9ca3ac;fill-opacity:1;fill-rule:nonzero;stroke:none"
             d="m 1181.05,0 h -3.64 l 313.94,307.41 c 0.57,-0.629 1.19,-1.211 1.85,-1.75 L 1181.05,0" /></g></g><g
         id="g94"><g
           id="g96"><path
             id="path108"
             style="fill:#9ca3ac;fill-opacity:1;fill-rule:nonzero;stroke:none"
             d="m 5195.27,0 h -3.33 l -321.62,386.789 c 0.7,0.492 1.35,1.031 1.96,1.633 L 5195.27,0" /></g></g><g
         id="g110"><g
           id="g112"><path
             id="path124"
             style="fill:#9ca3ac;fill-opacity:1;fill-rule:nonzero;stroke:none"
             d="m 1712.32,0 h -3.04 l -199.31,304.102 c 0.75,0.41 1.47,0.867 2.14,1.39 L 1712.32,0" /></g></g><g
         id="g126"><g
           id="g128"><path
             id="path140"
             style="fill:#9ca3ac;fill-opacity:1;fill-rule:nonzero;stroke:none"
             d="m 1828.11,0 h -2.77 l 456.72,1073.27 c 0.73,-0.43 1.49,-0.8 2.29,-1.1 L 1828.11,0" /></g></g><g
         id="g142"><g
           id="g144"><path
             id="path156"
             style="fill:#9ca3ac;fill-opacity:1;fill-rule:nonzero;stroke:none"
             d="m 4080.84,0 h -2.72 l -354.05,958.59 c 0.83,0.23 1.63,0.519 2.39,0.879 L 4080.84,0" /></g></g><g
         id="g158"><g
           id="g160"><path
             id="path172"
             style="fill:#9ca3ac;fill-opacity:1;fill-rule:nonzero;stroke:none"
             d="m 2693.6,0 h -2.72 l -397.37,1071.63 c 0.84,0.2 1.64,0.48 2.42,0.82 L 2693.6,0" /></g></g><g
         id="g174"><g
           id="g176"><path
             id="path188"
             style="fill:#9ca3ac;fill-opacity:1;fill-rule:nonzero;stroke:none"
             d="m 2879.29,0 h -2.71 l 188.6,558.129 c 0.78,-0.32 1.59,-0.578 2.43,-0.777 L 2879.29,0" /></g></g><g
         id="g190"><g
           id="g192"><path
             id="path204"
             style="fill:#9ca3ac;fill-opacity:1;fill-rule:nonzero;stroke:none"
             d="m 4149.92,0 h -2.66 l 278.3,902.898 c 0.78,-0.339 1.59,-0.609 2.43,-0.816 L 4149.92,0" /></g></g><g
         id="g206"><g
           id="g208"><path
             id="path220"
             style="fill:#9ca3ac;fill-opacity:1;fill-rule:nonzero;stroke:none"
             d="m 974.27,0 h -2.575 l -110.66,918.57 c 0.867,0.039 1.711,0.141 2.535,0.321 L 974.27,0 m 540.65,326.91 c -0.52,0.68 -1.1,1.309 -1.72,1.899 l 764.38,748.461 c 0.52,-0.69 1.09,-1.33 1.71,-1.92 L 1514.92,326.91 m -21.66,2.692 -403.06,614.937 c 0.76,0.402 1.48,0.859 2.16,1.383 l 403.02,-614.91 c -0.75,-0.41 -1.45,-0.883 -2.12,-1.41" /></g></g><g
         id="g222"><g
           id="g224"><path
             id="path236"
             style="fill:#9ca3ac;fill-opacity:1;fill-rule:nonzero;stroke:none"
             d="m 4874.8,407.039 c -0.43,0.742 -0.91,1.43 -1.45,2.07 L 6000,1183.29 v -3.07 L 4874.8,407.039 m -23.97,3.199 -410.75,493.973 c 0.71,0.469 1.37,0.988 1.99,1.57 l 410.7,-493.922 c -0.69,-0.488 -1.34,-1.027 -1.94,-1.621 M 3057.68,579.68 2301.84,1077.03 c 0.53,0.67 1,1.38 1.4,2.12 l 755.87,-497.341 c -0.54,-0.668 -1.01,-1.379 -1.43,-2.129 m 19.68,6.531 c -0.77,0.34 -1.57,0.629 -2.4,0.848 l 139.18,411.832 c 0.77,-0.321 1.58,-0.582 2.42,-0.77 l -139.2,-411.91 M 0,840.41 v 2.559 l 845.094,90.519 c 0.019,-0.867 0.113,-1.718 0.273,-2.547 L 0,840.41 m 4416.32,76.352 -681.21,54.07 c 0.13,0.809 0.2,1.648 0.2,2.508 0,0.012 0,0.019 0,0.031 l 681.19,-54.062 c -0.12,-0.77 -0.18,-1.547 -0.18,-2.36 0,-0.058 0,-0.129 0,-0.187 M 0,947.488 v 2.891 l 793.301,423.101 c 0.262,-0.82 0.594,-1.6 0.98,-2.35 L 0,947.488" /></g></g><g
         id="g238"><g
           id="g240"><path
             id="path252"
             style="fill:#9ca3ac;fill-opacity:1;fill-rule:nonzero;stroke:none"
             d="m 4446.81,918.75 c -0.1,0.852 -0.27,1.691 -0.51,2.488 L 6000,1239.11 v -2.59 L 4446.81,918.75 m -28.08,6.449 -954.94,762.611 c 0.57,0.64 1.08,1.33 1.53,2.06 l 954.96,-762.651 c -0.57,-0.629 -1.09,-1.309 -1.55,-2.02 m -3543.05,8.992 c -0.02,0.86 -0.106,1.707 -0.262,2.539 l 192.382,20.602 c 0.04,-0.871 0.16,-1.711 0.33,-2.531 l -192.45,-20.61 m -18.301,14.68 -49.875,413.999 c 0.117,0 0.238,0 0.355,0 0.75,0 1.485,0.05 2.204,0.16 l 49.851,-413.87 c -0.863,-0.019 -1.711,-0.121 -2.535,-0.289 m 241.001,9.188 c 0,0 0,0.011 0,0.023 0,0.848 -0.07,1.688 -0.21,2.508 l 1176.33,125.97 c 0,-0.03 0,-0.06 0,-0.08 0,-0.83 0.07,-1.65 0.19,-2.44 L 1098.38,958.059 m -24.86,11.961 -258.61,394.57 c 0.758,0.39 1.477,0.85 2.153,1.36 L 1075.63,971.449 c -0.74,-0.418 -1.45,-0.898 -2.11,-1.429 m 2631.2,3.218 -469.63,37.272 c 0.13,0.82 0.2,1.67 0.2,2.53 v 0.01 l 469.62,-37.269 c -0.13,-0.793 -0.19,-1.609 -0.19,-2.441 0,-0.031 0,-0.07 0,-0.102 m 8.78,13.961 -257.06,695.981 c 0.83,0.23 1.62,0.52 2.38,0.88 l 257.06,-695.97 c -0.82,-0.231 -1.62,-0.531 -2.38,-0.891 m -508.81,25.721 -899.73,71.41 c 0.1,0.7 0.15,1.42 0.15,2.15 0,0.13 -0.01,0.27 -0.01,0.41 l 899.78,-71.42 c -0.13,-0.79 -0.19,-1.6 -0.19,-2.43 0,-0.04 0,-0.08 0,-0.12 m 21.62,14.05 c -0.77,0.35 -1.58,0.64 -2.41,0.86 l 221.78,656.28 c 0.76,-0.37 1.56,-0.67 2.38,-0.91 l -221.75,-656.23 m -951.68,61.46 -1451.837,286.38 c 0.184,0.82 0.305,1.67 0.348,2.53 L 2275.16,1090.92 c -0.25,-0.8 -0.43,-1.63 -0.53,-2.49 m 29.01,4.59 c -0.37,0.77 -0.79,1.5 -1.28,2.19 l 1135.49,597.64 c 0.28,-0.81 0.63,-1.59 1.04,-2.33 l -1135.25,-597.5" /></g></g><g
         id="g254"><g
           id="g256"><path
             id="path268"
             style="fill:#9ca3ac;fill-opacity:1;fill-rule:nonzero;stroke:none"
             d="m 5468.48,0 h -2.86 L 6000,1071.75 v -5.7 L 5468.48,0" /></g></g><g
         id="g270"><g
           id="g272"><path
             id="path284"
             style="fill:#9ca3ac;fill-opacity:1;fill-rule:nonzero;stroke:none"
             d="m 807.859,1362.87 c -0.117,0 -0.238,0 -0.355,0 -5.75,0.14 -10.723,3.45 -13.223,8.26 -0.386,0.75 -0.718,1.53 -0.98,2.35 -0.477,1.47 -0.735,3.05 -0.735,4.68 0,8.44 6.86,15.32 15.293,15.32 8.45,0 15.305,-6.88 15.305,-15.32 0,-0.27 -0.008,-0.55 -0.023,-0.82 -0.043,-0.86 -0.164,-1.71 -0.348,-2.53 -0.809,-3.6 -2.883,-6.72 -5.73,-8.86 -0.676,-0.51 -1.395,-0.97 -2.153,-1.36 -1.488,-0.78 -3.121,-1.31 -4.847,-1.56 -0.719,-0.11 -1.454,-0.16 -2.204,-0.16" /></g></g><g
         id="g286"><g
           id="g288"><path
             id="path300"
             style="fill:#9ca3ac;fill-opacity:1;fill-rule:nonzero;stroke:none"
             d="m 860.379,918.551 c -7.438,0 -13.645,5.347 -15.012,12.39 -0.16,0.829 -0.254,1.68 -0.273,2.547 -0.004,0.121 -0.004,0.25 -0.004,0.383 0,7.41 5.285,13.609 12.289,15 0.824,0.168 1.672,0.27 2.535,0.289 0.156,0.012 0.309,0.012 0.465,0.012 7.473,0 13.695,-5.371 15.039,-12.442 0.156,-0.832 0.242,-1.679 0.262,-2.539 0.004,-0.113 0.004,-0.211 0.004,-0.32 0,-7.351 -5.196,-13.512 -12.114,-14.98 -0.824,-0.18 -1.668,-0.282 -2.535,-0.321 -0.215,-0.011 -0.433,-0.019 -0.656,-0.019" /></g></g><g
         id="g302"><g
           id="g304"><path
             id="path316"
             style="fill:#9ca3ac;fill-opacity:1;fill-rule:nonzero;stroke:none"
             d="m 1083.09,942.781 c -7.34,0 -13.46,5.16 -14.96,12.02 -0.17,0.82 -0.29,1.66 -0.33,2.531 -0.01,0.25 -0.02,0.496 -0.02,0.75 0,4.828 2.24,9.137 5.74,11.938 0.66,0.531 1.37,1.011 2.11,1.429 2.21,1.231 4.75,1.93 7.46,1.93 7.59,0 13.89,-5.539 15.08,-12.789 0.14,-0.82 0.21,-1.66 0.21,-2.508 0,-0.012 0,-0.023 0,-0.023 -0.01,-4.95 -2.37,-9.348 -6.02,-12.137 -0.68,-0.524 -1.4,-0.981 -2.16,-1.383 -2.12,-1.117 -4.54,-1.758 -7.11,-1.758" /></g></g><g
         id="g318"><g
           id="g320"><path
             id="path332"
             style="fill:#9ca3ac;fill-opacity:1;fill-rule:nonzero;stroke:none"
             d="m 2289.79,1071.17 c -1.91,0 -3.75,0.35 -5.44,1 -0.8,0.3 -1.56,0.67 -2.29,1.1 -1,0.59 -1.93,1.29 -2.77,2.08 -0.62,0.59 -1.19,1.23 -1.71,1.92 -1.47,1.95 -2.48,4.25 -2.89,6.77 -0.12,0.79 -0.19,1.61 -0.19,2.44 0,0.02 0,0.05 0,0.08 0.01,0.63 0.05,1.26 0.13,1.87 0.1,0.86 0.28,1.69 0.53,2.49 1.9,6.28 7.73,10.85 14.63,10.85 5.21,0 9.81,-2.59 12.57,-6.56 0.49,-0.69 0.91,-1.42 1.28,-2.19 0.88,-1.87 1.4,-3.94 1.46,-6.13 0,-0.14 0.01,-0.28 0.01,-0.41 0,-0.73 -0.05,-1.45 -0.15,-2.15 -0.26,-1.85 -0.85,-3.6 -1.72,-5.18 -0.4,-0.74 -0.87,-1.45 -1.4,-2.12 -1.55,-1.98 -3.58,-3.56 -5.91,-4.58 -0.78,-0.34 -1.58,-0.62 -2.42,-0.82 -1.19,-0.3 -2.43,-0.46 -3.72,-0.46" /></g></g><g
         id="g334"><g
           id="g336"><path
             id="path348"
             style="fill:#9ca3ac;fill-opacity:1;fill-rule:nonzero;stroke:none"
             d="m 1502.76,302.309 c -3.61,0 -6.94,1.25 -9.56,3.351 -0.66,0.539 -1.28,1.121 -1.85,1.75 -2.42,2.711 -3.89,6.281 -3.89,10.199 0,4.86 2.27,9.192 5.8,11.993 0.67,0.527 1.37,1 2.12,1.41 2.19,1.207 4.71,1.898 7.38,1.898 4.03,0 7.7,-1.558 10.44,-4.101 0.62,-0.59 1.2,-1.219 1.72,-1.899 1.98,-2.578 3.16,-5.808 3.16,-9.301 0,-4.929 -2.34,-9.32 -5.97,-12.117 -0.67,-0.523 -1.39,-0.98 -2.14,-1.39 -2.15,-1.141 -4.6,-1.793 -7.21,-1.793" /></g></g><g
         id="g350"><g
           id="g352"><path
             id="path364"
             style="fill:#9ca3ac;fill-opacity:1;fill-rule:nonzero;stroke:none"
             d="m 3071.06,556.961 c -1.18,0 -2.34,0.141 -3.45,0.391 -0.84,0.199 -1.65,0.457 -2.43,0.777 -5.54,2.312 -9.42,7.769 -9.42,14.133 0,2.687 0.7,5.218 1.92,7.418 0.42,0.75 0.89,1.461 1.43,2.129 2.8,3.5 7.11,5.75 11.95,5.75 1.35,0 2.66,-0.18 3.9,-0.5 0.83,-0.219 1.63,-0.508 2.4,-0.848 5.31,-2.41 9.01,-7.762 9.01,-13.949 0,-2.614 -0.65,-5.063 -1.81,-7.211 -0.4,-0.762 -0.87,-1.469 -1.39,-2.153 -2.79,-3.609 -7.18,-5.937 -12.11,-5.937" /></g></g><g
         id="g366"><g
           id="g368"><path
             id="path380"
             style="fill:#9ca3ac;fill-opacity:1;fill-rule:nonzero;stroke:none"
             d="m 3219.98,997.73 c -1.17,0 -2.32,0.141 -3.42,0.391 -0.84,0.188 -1.65,0.449 -2.42,0.77 -5.52,2.289 -9.41,7.709 -9.45,14.029 0,0.04 0,0.08 0,0.12 0,0.83 0.06,1.64 0.19,2.43 1.17,7.28 7.48,12.86 15.1,12.86 1.36,0 2.67,-0.17 3.92,-0.5 0.83,-0.22 1.64,-0.51 2.41,-0.86 5.3,-2.4 8.98,-7.74 8.98,-13.92 v -0.01 c 0,-0.86 -0.07,-1.71 -0.2,-2.53 -1.21,-7.24 -7.51,-12.78 -15.11,-12.78" /></g></g><g
         id="g382"><g
           id="g384"><path
             id="path396"
             style="fill:#9ca3ac;fill-opacity:1;fill-rule:nonzero;stroke:none"
             d="m 3720.01,958.051 c -8.41,0 -15.24,6.801 -15.29,15.187 0,0.032 0,0.071 0,0.102 0,0.832 0.06,1.648 0.19,2.441 0.81,5.059 4.11,9.301 8.59,11.418 0.76,0.36 1.56,0.66 2.38,0.891 1.32,0.371 2.7,0.558 4.13,0.558 8.46,0 15.29,-6.859 15.3,-15.277 0,-0.012 0,-0.019 0,-0.031 0,-0.86 -0.07,-1.699 -0.2,-2.508 -0.84,-5.051 -4.15,-9.273 -8.65,-11.363 -0.76,-0.36 -1.56,-0.649 -2.39,-0.879 -1.29,-0.352 -2.65,-0.539 -4.06,-0.539" /></g></g><g
         id="g398"><g
           id="g400"><path
             id="path412"
             style="fill:#9ca3ac;fill-opacity:1;fill-rule:nonzero;stroke:none"
             d="m 4431.62,901.648 c -1.25,0 -2.47,0.153 -3.63,0.434 -0.84,0.207 -1.65,0.477 -2.43,0.816 -5.38,2.321 -9.16,7.653 -9.24,13.864 0,0.058 0,0.129 0,0.187 0,0.813 0.06,1.59 0.18,2.36 0.33,2.14 1.11,4.14 2.23,5.89 0.46,0.711 0.98,1.391 1.55,2.02 2.8,3.082 6.84,5.031 11.34,5.031 6.96,0 12.83,-4.648 14.68,-11.012 0.24,-0.797 0.41,-1.636 0.51,-2.488 0.07,-0.59 0.1,-1.191 0.1,-1.801 0,-4.398 -1.86,-8.367 -4.84,-11.168 -0.62,-0.582 -1.28,-1.101 -1.99,-1.57 -2.42,-1.621 -5.33,-2.563 -8.46,-2.563" /></g></g><g
         id="g414"><g
           id="g416"><path
             id="path428"
             style="fill:#9ca3ac;fill-opacity:1;fill-rule:nonzero;stroke:none"
             d="m 4861.58,384.051 c -4.82,0 -9.12,2.23 -11.92,5.711 -0.53,0.66 -1.01,1.359 -1.43,2.097 -1.24,2.211 -1.95,4.77 -1.95,7.493 0,4.257 1.74,8.109 4.55,10.886 0.6,0.594 1.25,1.133 1.94,1.621 2.49,1.762 5.53,2.789 8.81,2.789 4.74,0 8.97,-2.148 11.77,-5.539 0.54,-0.64 1.02,-1.328 1.45,-2.07 1.32,-2.258 2.07,-4.891 2.07,-7.687 0,-4.293 -1.75,-8.161 -4.59,-10.93 -0.61,-0.602 -1.26,-1.141 -1.96,-1.633 -2.48,-1.73 -5.49,-2.738 -8.74,-2.738" /></g></g><g
         id="g430"><g
           id="g432"><path
             id="path444"
             style="fill:#9ca3ac;fill-opacity:1;fill-rule:nonzero;stroke:none"
             d="m 3452.29,1682.61 c -1.46,0 -2.89,0.2 -4.23,0.59 -0.82,0.24 -1.62,0.54 -2.38,0.91 -2.87,1.38 -5.25,3.63 -6.79,6.41 -0.41,0.74 -0.76,1.52 -1.04,2.33 -0.56,1.58 -0.86,3.28 -0.86,5.05 0,8.43 6.85,15.3 15.3,15.3 8.47,0 15.31,-6.87 15.31,-15.3 0,-2.94 -0.84,-5.7 -2.28,-8.03 -0.45,-0.73 -0.96,-1.42 -1.53,-2.06 -1.37,-1.57 -3.06,-2.85 -4.97,-3.75 -0.76,-0.36 -1.55,-0.65 -2.38,-0.88 -1.32,-0.37 -2.71,-0.57 -4.15,-0.57" /></g></g><path
         id="path446"
         style="fill:#4c545c;fill-opacity:1;fill-rule:nonzero;stroke:none"
         d="m 6060.96,637.07 -873.77,-690.2106 -1.59,1.9922 873.78,690.2074 1.58,-1.989" /><path
         id="path448"
         style="fill:#4c545c;fill-opacity:1;fill-rule:nonzero;stroke:none"
         d="m 1572.86,898.07 972.36,776.52 -266.12,-720.481 z m 709.04,56.282 266.05,720.288 230.1,-680.921 z m 268.32,721.498 1156.07,-608.47 -925.63,-73.45 z m 231.28,-684.42 924.44,73.36 -776.56,-510.958 z m 932.81,73.37 1200.37,-128.55 -417.9,-637.621 z M 4916.25,938.641 3719.29,1066.84 5190.46,1357.03 Z m 2.85,-0.301 272.17,415.26 -52.85,-438.76 z M 1136.66,378.77 779.031,-51.3281 l 1.946,-1.6407 357.793,430.2778 626.52,-430.4887 1.43,2.0899 -626.32,430.3708 427.87,514.551 291.72,-946.3633 2.42,0.75 -291.92,947.0903 707.64,56.16 -370.52,-1003.1799 2.38,-0.8789 370.94,1004.2888 497.95,39.512 148.3,-438.84 -917.08,-603.4413 1.39,-2.1289 916.54,603.0702 203.56,-602.4218 2.41,0.8203 -203.78,603.0625 778.02,511.928 -413.44,-1114.9592 2.4,-0.8906 413.66,1115.6098 474.77,-1115.6684 2.35,1 -473.53,1112.7184 780.91,-764.609 -228.03,-347.9102 2.12,-1.3906 227.76,347.4878 355.09,-347.6988 1.79,1.8125 -355.46,348.0583 418.9,639.129 220.58,-23.64 -116.18,-964.2973 2.53,-0.3008 116.18,964.3281 919.4,-98.457 0.26,2.527 -919.35,98.461 53.28,442.29 865.34,-461.54 1.19,2.25 -866.2,461.99 -2.14,0.46 -1481.22,-292.19 -2.99,1.42 -1159.18,610.12 -2.11,-0.13 -977.45,-780.619 -1.17,-0.769 L -59.5508,1230.9 -60.0781,1228.4 1566.46,895.641 1138.29,380.719 -59.0938,1203.5 -60.5352,1201.42 1136.66,378.77" /><path
         id="path450"
         style="fill:#4c545c;fill-opacity:1;fill-rule:nonzero;stroke:none"
         d="M -58.6719,1169.03 549.934,-51.5781 547.645,-52.7109 -60.957,1167.9 l 2.2851,1.13" /><path
         id="path452"
         style="fill:#4c545c;fill-opacity:1;fill-rule:nonzero;stroke:none"
         d="m 5176.84,1357.76 c 0,-8.43 6.85,-15.29 15.31,-15.29 8.45,0 15.3,6.86 15.3,15.29 0,8.44 -6.85,15.31 -15.3,15.31 -8.46,0 -15.31,-6.87 -15.31,-15.31" /><path
         id="path454"
         style="fill:#4c545c;fill-opacity:1;fill-rule:nonzero;stroke:none"
         d="m 5124.32,913.461 c 0,-8.441 6.85,-15.301 15.3,-15.301 8.45,0 15.29,6.86 15.29,15.301 0,8.43 -6.84,15.309 -15.29,15.309 -8.45,0 -15.3,-6.879 -15.3,-15.309" /><path
         id="path456"
         style="fill:#4c545c;fill-opacity:1;fill-rule:nonzero;stroke:none"
         d="m 4901.62,937.691 c 0,-8.449 6.86,-15.312 15.29,-15.312 8.47,0 15.32,6.863 15.32,15.312 0,8.43 -6.85,15.289 -15.32,15.289 -8.43,0 -15.29,-6.859 -15.29,-15.289" /><path
         id="path458"
         style="fill:#4c545c;fill-opacity:1;fill-rule:nonzero;stroke:none"
         d="m 3694.91,1066.07 c 0,-8.44 6.85,-15.3 15.3,-15.3 8.44,0 15.3,6.86 15.3,15.3 0,8.45 -6.86,15.31 -15.3,15.31 -8.45,0 -15.3,-6.86 -15.3,-15.31" /><path
         id="path460"
         style="fill:#4c545c;fill-opacity:1;fill-rule:nonzero;stroke:none"
         d="m 4481.94,297.211 c 0,-8.449 6.86,-15.301 15.3,-15.301 8.44,0 15.3,6.852 15.3,15.301 0,8.437 -6.86,15.301 -15.3,15.301 -8.44,0 -15.3,-6.864 -15.3,-15.301" /><path
         id="path462"
         style="fill:#4c545c;fill-opacity:1;fill-rule:nonzero;stroke:none"
         d="m 2913.64,551.859 c 0,-8.429 6.85,-15.3 15.3,-15.3 8.46,0 15.31,6.871 15.31,15.3 0,8.43 -6.85,15.301 -15.31,15.301 -8.45,0 -15.3,-6.871 -15.3,-15.301" /><path
         id="path464"
         style="fill:#4c545c;fill-opacity:1;fill-rule:nonzero;stroke:none"
         d="m 2764.72,992.641 c 0,-8.442 6.83,-15.321 15.3,-15.321 8.46,0 15.3,6.879 15.3,15.321 0,8.429 -6.84,15.299 -15.3,15.299 -8.47,0 -15.3,-6.87 -15.3,-15.299" /><path
         id="path466"
         style="fill:#4c545c;fill-opacity:1;fill-rule:nonzero;stroke:none"
         d="m 2264.69,952.949 c 0,-8.437 6.84,-15.301 15.3,-15.301 8.46,0 15.29,6.864 15.29,15.301 0,8.442 -6.83,15.289 -15.29,15.289 -8.46,0 -15.3,-6.847 -15.3,-15.289" /><path
         id="path468"
         style="fill:#4c545c;fill-opacity:1;fill-rule:nonzero;stroke:none"
         d="m 1553.09,896.551 c 0,-8.43 6.84,-15.301 15.3,-15.301 8.46,0 15.29,6.871 15.29,15.301 0,8.437 -6.83,15.301 -15.29,15.301 -8.46,0 -15.3,-6.864 -15.3,-15.301" /><path
         id="path470"
         style="fill:#4c545c;fill-opacity:1;fill-rule:nonzero;stroke:none"
         d="m 1123.13,378.949 c 0,-8.437 6.84,-15.301 15.29,-15.301 8.46,0 15.3,6.864 15.3,15.301 0,8.442 -6.84,15.301 -15.3,15.301 -8.45,0 -15.29,-6.859 -15.29,-15.301" /><path
         id="path472"
         style="fill:#4c545c;fill-opacity:1;fill-rule:nonzero;stroke:none"
         d="m 2532.41,1677.51 c 0,-8.45 6.85,-15.3 15.3,-15.3 8.45,0 15.3,6.85 15.3,15.3 0,8.43 -6.85,15.29 -15.3,15.29 -8.45,0 -15.3,-6.86 -15.3,-15.29" /></g></g></svg>